<?xml version="1.0" encoding="UTF-8"?>
<svg id="Capa_2" data-name="Capa 2" xmlns="http://www.w3.org/2000/svg" viewBox="0 0 443.59 164.22">
  <defs>
    <style>
      .cls-1 {
        fill: #e6331f;
      }
    </style>
  </defs>
  <g id="Capa_1-2" data-name="Capa 1">
    <g>
      <path class="cls-1" d="M0,164.22C0,109.48,0,54.74,0,0H47.2c-.01,4.63-.02,6.94-.03,11.57-11.12,.16-22.24,.33-33.36,.51-.02,20.63-.05,41.27-.07,61.9,10.38-1.07,20.77-2.06,31.16-2.95-.01,4.6-.02,6.9-.03,11.5-10.39,1.04-20.77,2.18-31.14,3.43-.03,25.03-.05,50.06-.08,75.09-5.46,1.23-8.19,1.86-13.64,3.17Z"/>
      <path class="cls-1" d="M44.23,154.7C50.2,103.12,56.32,51.55,62.58,0h25.95c5.65,48.37,11.38,96.73,17.2,145.08-5.66,.7-8.49,1.07-14.14,1.85-1.41-14.06-2.82-28.11-4.22-42.17-9.83,1-14.74,1.54-24.55,2.73-1.48,14.88-2.96,29.76-4.43,44.64-5.67,.99-8.5,1.51-14.16,2.58Zm19.98-58.72c8.73-.93,13.1-1.37,21.84-2.17-1.04-10.71-2.08-21.41-3.11-32.12-1.51-16.84-3.01-33.68-4.51-50.53-2.34,.03-3.52,.04-5.86,.07-1.64,17.18-3.27,34.36-4.9,51.54-1.16,11.07-2.31,22.13-3.46,33.2Z"/>
      <path class="cls-1" d="M117.26,143.73c.19-47.91,.38-95.82,.57-143.73h14.65c-.11,11.23-.22,22.46-.33,33.69-.71,12.12-1.42,24.24-2.13,36.37,1.43-.07,2.14-.1,3.56-.17,4.46-13.23,8.93-26.46,13.45-39.68,3.89-10.08,7.8-20.15,11.72-30.21h15.17c-8.43,20.98-16.8,41.98-25.11,63,9.05,25.38,18.2,50.73,27.42,76.05-5.77,.28-8.65,.44-14.42,.8-7.38-20.8-14.71-41.62-21.96-62.46-3.3,7.55-4.95,11.35-8.25,18.99-.06,15.29-.11,30.59-.17,45.88-5.67,.54-8.51,.83-14.17,1.46Z"/>
      <path class="cls-1" d="M185.71,138.65c.08-46.22,.16-92.43,.24-138.65h47.2c0,4.14,0,6.21,0,10.35-11.13,0-22.27,0-33.4,.01l-.06,53.13c10.46-.12,20.93-.15,31.39-.1,0,4.11,0,6.16,0,10.26-10.47-.06-20.94-.03-31.41,.11-.02,18.03-.04,36.05-.06,54.08,11.21-.18,22.39-.24,33.6-.18,0,4.14,0,6.21,0,10.35-15.84-.22-31.69,.04-47.52,.62Z"/>
      <path class="cls-1" d="M245.03,138.25c-.05-46.08-.11-92.17-.16-138.25h47.2c.01,4.22,.02,6.33,.03,10.54-11.13-.06-22.26-.11-33.4-.14,.03,17.77,.06,35.54,.1,53.31,10.46,.18,20.92,.45,31.37,.81,.01,4.18,.02,6.27,.03,10.45-10.46-.41-20.92-.73-31.39-.94,.04,21.55,.08,43.11,.12,64.66-5.56-.22-8.34-.31-13.9-.44Z"/>
      <path class="cls-1" d="M302.81,141.42c-.16-47.14-.33-94.28-.49-141.42h13.81c.17,44,.33,88.01,.5,132.01,11.2,1.11,22.36,2.33,33.54,3.67,.02,4.4,.03,6.6,.04,11-15.75-2.18-31.57-3.88-47.41-5.26Z"/>
      <path class="cls-1" d="M359.31,147.97c-.2-49.32-.4-98.65-.59-147.97h13.81c.19,50.03,.38,100.06,.57,150.09-5.51-.89-8.27-1.31-13.79-2.12Z"/>
      <path class="cls-1" d="M384.78,152.05c6.55-25.23,13-50.49,19.35-75.77-6.18-25.46-12.49-50.88-18.93-76.28h13.5c2.89,12.27,5.75,24.54,8.57,36.83,1.92,11.66,3.83,23.33,5.72,35,.92,.09,1.38,.13,2.29,.22,1.87-11.52,3.72-23.04,5.57-34.56,2.79-12.49,5.56-24.99,8.31-37.49h13.5c-5.97,26.27-12.03,52.51-18.2,78.73,6.56,28.46,12.94,56.95,19.14,85.49-5.37-1.29-8.05-1.91-13.43-3.12-2.92-13.78-5.88-27.56-8.87-41.33-1.98-11.96-3.98-23.92-5.99-35.88-.92-.1-1.37-.15-2.29-.25-1.94,11.31-3.89,22.62-5.85,33.93-2.95,12.31-5.94,24.62-8.94,36.92-5.37-1.01-8.05-1.5-13.43-2.44Z"/>
    </g>
  </g>
</svg>