<?xml version="1.0" encoding="UTF-8"?>
<svg id="Capa_2" data-name="Capa 2" xmlns="http://www.w3.org/2000/svg" viewBox="0 0 50 50">
  <defs>
    <style>
      .cls-1 {
        fill: #e63622;
      }

      .cls-2 {
        fill: #3f3f3f;
      }
    </style>
  </defs>
  <g id="Capa_1-2" data-name="Capa 1">
    <g>
      <path class="cls-2" d="M40,0H10C4.48,0,0,4.48,0,10v30c0,5.52,4.48,10,10,10h30c5.52,0,10-4.48,10-10V10c0-5.52-4.48-10-10-10Zm-9.51,8.56c-2.59,.04-5.18,.08-7.77,.12,0,4.81-.01,9.62-.02,14.43,2.42-.25,4.84-.48,7.26-.69,0,1.07,0,1.61,0,2.68-2.42,.24-4.84,.51-7.26,.8,0,5.83-.01,11.67-.02,17.5-1.27,.29-1.91,.43-3.18,.74h0V5.86h11c0,1.08,0,1.62,0,2.7Z"/>
      <path class="cls-1" d="M19.5,44.14h0c1.27-.31,1.91-.45,3.18-.74,0-5.83,.01-11.67,.02-17.5,2.42-.29,4.84-.56,7.26-.8,0-1.07,0-1.61,0-2.68-2.42,.21-4.84,.44-7.26,.69,0-4.81,.01-9.62,.02-14.43,2.59-.04,5.18-.08,7.77-.12,0-1.08,0-1.62,0-2.7h-11V44.14Z"/>
    </g>
  </g>
</svg>